# xmcd
#
# Track frame offsets:
#	150
#	9785
#	30485
#	42227
#	61887
#	79390
#	96312
#	110810
#	126737
#	141142
#
# Disc length: 2103 seconds
#
# Revision: 2
# Processed by: cddbd v1.5.1PL0 Copyright (c) Steve Scherf et al.
# Submitted via: EasyCDDAExtractor 7.0.0.1
#
DISCID=8708350a
DTITLE=Acappella - Spirituals
DYEAR=1993
DGENRE=ontemporary Christian
TTITLE0=Ride The Chariot
TTITLE1=Soon Ah Will Be Done
TTITLE2=Elijah Rock
TTITLE3=Nobody Knows The Trouble I've Seen
TTITLE4=Every Time I Feel The Spirit
TTITLE5=Everybody Talkin' 'bout Heaven
TTITLE6=Ain't Got Time To Die
TTITLE7=Swing Low, Sweet Chariot
TTITLE8=I Want Jesus To Walk With Me
TTITLE9=Wade In The Water
EXTD=
EXTT0=
EXTT1=
EXTT2=
EXTT3=
EXTT4=
EXTT5=
EXTT6=
EXTT7=
EXTT8=
EXTT9=
PLAYORDER=
